<?xml version="1.0" encoding="UTF-8"?>
<svg version="1.1" viewBox="0 0 2048 1064" width="100" height="60" xmlns="http://www.w3.org/2000/svg">
<path transform="translate(0)" d="m0 0h2048v1064h-2048z" fill="#F8FAFD"/>
<path transform="translate(562,21)" d="m0 0h12l16 2 18 6 15 8 14 10 12 11 10 11 13 18 12 20 15 27 14 24 12 21 14 24 4 6 5-1 20-12 13-8 25-15 22-13 18-10 35-18 23-11 24-11 27-11 25-8 24-6 21-3h12l15 2 12 5 6 4 6 7 4 8 2 9v9l-2 14-6 21-8 19-13 26-17 28-7 11-12 18-6 8v3l19 4 18 6 16 8 15 10 7 5h16l62-6 60-5 28-1h72l36 1 61 4 47 5 48 7 44 8 40 9 43 12 36 12 33 13 33 15 26 14 26 16 28 20 4 5 3-1 14-26 12-23 12-22 6-9 3 3 22 61 9 22 5 6 15 4 77 14 3 1-1 4-10 9-12 9-17 14-14 11-11 9-5 5-4 5-1 7 5 39 7 51-3 1-17-11-29-19-12-8-5-1-16 32-11 17-10 13-11 13-25 25-11 9-16 13-16 10-12 5-21 6h-5l-5-4-12-5-15-3-29-3h-20l-8 4-5 8-4 13-4-2-9-10-13-9-16-7-16-4-15-2h-22l-14 2-17 5-14 7-9 7-9 8-2-1-1-16-3-9-6-4-14-3-24-2h-27l-14 3-11 7-7-6-9-3-21-3h-32l-12 2-8 4-7 5-8-6-11-4-5-1h-35l-16 2-11 4-8 6h-3l-9-7-7-2-10-1h-17l-33 2-9 2-6 4-6 5-11-5-19-4-9 1-12 4-13 7-5-2-8-4-6-1h-20l-29 2-16 1-5-26-4-8-5-4-8-3-15-1-5-18-9-35-3-14v-11l6-12 20-4 16-6 9-5 13-9 3 3 4 8 6 7 9 6 11 4 10 2h18l16-3 10-4 7-4 6 2 8 4 16 3h40l18-1 3 37 3 14 5 5 8 3 21 3h49l26-3 21-5 19-7 14-8 14-11 9-9 9-14 5-12 3-17v-23l-4-37-6-46-6-38-4-16-4-6-6-3-5-1h-29l-19 2-21 5-6 4-5 6-8-6-6-3h-29l-22 2-16 3-10 5-5 8-4 13-4-2-9-9-11-7-13-5-18-4-24-2-1-4 2-11v-8l-5-12-7-6-12-5-11-3-19-2h-106l-40-2-88-1-13-4-8-6-7-10-12-20-14-23-18-30-12-21-21-35-14-25-11-19-12-19-7-11-8-10-8-8-12-6-4-1h-9l-12 6-7 6-7 10-8 15-8 22-14 47-19 56-20 55-14 37-6 14-8 9-13 6-40 10-65 15-57 13-66 15-12 4-16 8-9 6-6 7-2 7 1 13 8 16 9 10 9 9 14 11 24 15 16 11 16 12 19 14 18 13 13 10 14 11 15 12 17 13 14 11 12 11 5 10 1 5v19l-3 79-2 56-3 58v38l2 14 5 13 7 8 8 4 4 1h14l12-4 18-10 12-9 30-26 13-11 11-9 17-14 14-11 17-13 19-14 13-10 19-14 17-12 10-4 10 1 15 5 28 12 27 13 16 7 16 8 33 15 6 4 1 18 2 10 8 9 11 4h15l33-3 7 1 15 7 25 9 9 2h15l9-3 7-6 5-8 2-9 1-1 35-2 24-2 11-3 5-5 4-6 1-3v-14l-6-33v-17l6-9 7-4 8 1 10 4 10 6 11 3 2 14 4 15 7 16 7 10 8 7 15 7 12 3 7 1h18l19-5 12-7 7 4 9 4 14 2h18l21-2h6l1 4-4 3-29 4-37 2-40 4-42 3-30 2h-43l-9-1-4 17-5 15-8 16-9 13-15 15-14 9-15 7-15 4-13 2h-27l-20-4-20-6-15-6-25-12-29-15-25-13-23-11-32-15-36-16-26-12-8-4-7 6-19 14-12 9-21 16-20 15-13 11-10 8-10 9-11 9-13 11-9 7-15 11-15 9-16 8-19 7-21 5-6 1h-17l-15-4-19-7-15-9-10-9-8-7-8-10-10-17-7-19-4-20-2-17v-29l-11 6-16 8-17 9-50 24-34 14-24 8-28 7-17 3h-28l-12-4-10-9-6-8-4-10v-20l4-19 9-24 11-22 14-24 12-19 8-12 11-16 14-19 12-16 12-14 10-13 11-13 9-11 13-14 9-11 10-10 7-8 10-12 4-3-2-4-11-9-18-13-39-26-14-10-13-11-12-11-9-10-14-19-9-17-5-14-4-25 1-16 4-18 6-14 10-16 8-10 11-11 14-10 17-9 21-8 24-7 126-28 42-10 26-7 5-10 11-30 16-44 14-41 16-52 7-20 5-11 8-15 6-11 12-16 10-12 13-10 14-8 14-6 15-4z" fill="#56B2FE"/>
<path transform="translate(558,35)" d="m0 0h14l19 3 13 5 13 7 11 8 10 9 12 13 13 18 10 17 11 19 14 25 13 22 9 15 15 26 17 28 8 14 12 18 4 2 47 1 167 2 27 3 21 6 19 8 11 7 10 9 8 8 9 14 6 15 3 12v28l-4 19-5-1-12-5-15-4-15-2-15-1-1-4 2-11v-8l-5-12-7-6-12-5-11-3-19-2h-106l-40-2-88-1-13-4-8-6-7-10-12-20-14-23-18-30-12-21-21-35-14-25-11-19-12-19-7-11-8-10-8-8-12-6-4-1h-9l-12 6-7 6-7 10-8 15-8 22-14 47-19 56-20 55-14 37-6 14-8 9-13 6-40 10-65 15-57 13-66 15-12 4-16 8-9 6-6 7-2 7 1 13 8 16 9 10 9 9 14 11 24 15 16 11 16 12 19 14 18 13 13 10 14 11 15 12 17 13 14 11 12 11 5 10 1 5v19l-3 79-2 56-3 58v38l2 14 5 13 7 8 8 4 4 1h14l12-4 18-10 12-9 30-26 13-11 11-9 17-14 14-11 17-13 19-14 13-10 19-14 17-12 10-4 10 1 15 5 28 12 27 13 16 7 16 8 33 15 6 4 1 18 2 10 8 9 11 4h15l33-3 7 1 15 7 25 9 9 2h15l9-3 7-6 5-8 2-9 1-1 35-2 24-2h7l-4 25-5 15-8 16-9 10-9 9-14 9-16 7-16 4-21 1-20-2-19-5-19-7-21-10-17-10-26-14-29-15-25-12-30-13-28-13-19-9-17-7-5 2-11 9-12 9-19 14-15 12-14 11-18 14-13 11-10 9-10 8-12 11-14 11-14 10-13 8-18 8-15 5-20 4h-21l-15-3-16-7-13-9-13-11-8-10-8-15-6-18-4-22-1-10v-31l4-73 2-53 2-59v-15l-14-11-10-8-11-9-10-8-17-13-19-14-17-12-18-13-17-12-22-15-16-12-13-11-11-11-10-13-9-16-7-18-2-11-1-19 2-14 5-15 9-17 8-10 9-9 13-9 19-10 25-9 23-6 126-29 53-13 15-4 6-14 18-49 11-30 14-41 12-41 7-23 9-21 8-15 8-12 8-10 11-11 10-7 15-8 15-5z" fill="#030E34"/>
<path transform="translate(561,100)" d="m0 0h9l11 4 8 6 9 9 7 10 15 24 10 17 9 16 13 23 8 13 16 27 8 14 12 20 11 18 17 28 7 10 9 6 11 3 88 1 40 2h106l19 2 17 5 9 5 6 7 4 10v8l-2 14v1l-42 3-31 6-6 2v-6l-3-4-3-17-4-10-5-5-12-5-25-7-24-4-20-2h-40l-21 3-11 4-10 6-9 8-8 13-6 16-2 2h-8l-16-4-13-5-13-7-10-8-9-9-12-17-10-17-9-15-19-32-9-14-13-23-11-19-15-25-14-24-4-3-9 31-20 59-18 50-20 53-10 21-9 13-9 9-14 9-15 7-18 6-50 12-143 33-3 1-1 2 6 2 15 9 19 13 18 13 18 14 12 9 19 14 13 10 10 8 16 13 12 9 11 9 12 12 10 15 5 11 4 17v44l-2 57-4 105-1 17 7-4 10-10 8-7 11-10 14-11 15-12 12-9 18-14 16-12 18-14 19-14 15-10 16-8 18-6h21l20 4 25 10 31 15 7 8 5 5 9 6h7l5-3 8 1 22 11 1 1v56l-1 6-19-9-30-14-34-16-24-11-24-10-16-4-7 1-10 5-18 13-48 36-21 16-17 14-10 8-14 12-11 9-30 26-15 10-15 8-10 3h-14l-10-4-8-7-5-10-3-11-1-9v-38l4-81 3-91 1-21v-19l-3-10-6-8-10-9-12-9-28-22-15-12-13-10-36-26-13-10-17-12-22-14-12-8-14-12-13-13-8-14-2-5-1-13 3-8 7-8 13-8 16-7 19-5 37-8 134-31 38-9 12-4 9-5 6-7 11-27 21-57 14-40 15-44 13-44 8-21 8-15 9-11 8-6z" fill="#56B2FE"/>
<path transform="translate(582,359)" d="m0 0 4 2 10 17 12 19 14 23 15 24 7 11 6 7 5 3 4 1h16l31-1h52l-1 3-6 4-4 6-1 3-2 21-4 10-13 16-8 10-9 10-6 9-3 9 2 13 14 40 19 53 3 9v5l-20-8-28-12-41-17-24-8h-8l-11 6-17 13-36 28-16 12-18 13-3 1 1-22 6-78v-24l-4-6-10-9-19-13-18-13-32-22-22-15 3-2 100-24 17-5 6-7 6-14 19-63 11-37z" fill="#56B2FE"/>
<path transform="translate(241,658)" d="m0 0 6 2 17 13 10 8 17 13 6 4 2 6-1 47-4 72-2 47-5 5-28 16-22 12-32 16-32 14-27 10-28 8-25 5-8 1h-12l-10-3-5-4-3-7v-12l4-18 10-25 8-16 6-11 13-22 10-15 11-16 14-19 12-16 11-14 13-16 9-11 12-14 9-11 11-12 7-8 12-14 11-11z" fill="#F8FAFD"/>
<path transform="translate(1876,355)" d="m0 0 3 3 22 61 9 22 5 6 15 4 77 14 3 1-1 4-10 9-12 9-17 14-14 11-11 9-5 5-4 5-1 7 5 39 7 51-3 1-17-11-29-19-12-8-16-10-6-3h-7l-23 11-30 15-23 11-9 4h-2l2-9 12-43 8-29 1-5v-14l-6-9-21-21v-2l-4-2-9-10-25-25-1-3 5-1 38-2 42-2 15-2 8-11 16-31 12-22 10-18z" fill="#030E34"/>
<path transform="translate(1023,103)" d="m0 0h22l8 3 6 7 1 2v14l-4 18-8 21-8 17-13 23-13 21-13 19-13 18-3 4-3 1h-202l-8-11-12-20-5-9v-4l11-6 21-13 32-19 16-9 27-15 23-12 31-15 28-12 30-11 28-8z" fill="#F8FAFD"/>
<path transform="translate(1279,408)" d="m0 0h17l4 3 3 12 9 62 6 54v24l-4 16-7 13-9 11-11 9-14 8-14 6-19 5-14 2-14 1h-47l-20-2-3-3-2-12-1-20v-18l2-6 10 1 16 5 11 2h26l13-4 13-8 5-4 7-10 4-10 1-13-1-8-4 1-6 15-6 10-8 8-12 6-12 3h-20l-11-3-10-6-8-7-9-14-5-16-2-13-1-21v-30l1-23 2-11 7-3 27-3 15-1h16l4 4v16l-2 25v12l2 16 4 11 6 8 9 3 6-2 5-5 4-8 1-5v-21l-5-33-2-11v-9l3-3 5-2 24-3z" fill="#030E34"/>
<path transform="translate(1292,718)" d="m0 0h47l12 1 5 2 1 6-6 38-1 11v15l2 10 4 8 5 5 9 2 8-4 6-11 2-8v-41l-1-16v-11l5-5 7-1h27l19 1 8 2 2 1 2 14 2 37 1 32v51l-3 21-3 10-6 12-11 12-10 8-16 8-18 6-18 3h-37l-32-3-25-5-5-4-1-3 1-23 2-23 3-7 6 1 18 8 15 4 16 2 14-1 13-4 11-7 8-8 5-8 2-6 1-7v-13l-4 2-8 16-9 10-9 6-10 4-6 1h-17l-12-3-14-7-9-9-6-11-4-11-2-13v-25l3-30 4-30 4-10z" fill="#030E34"/>
<path transform="translate(831,368)" d="m0 0h30l24 3 25 5 23 7 5 5 1 3v22l-1 22-3 9-3 1-11-6-10-6-11-5-13-4-6-1h-23l-9 3-5 5v6l3 3v2l5 2 8 4 36 14 16 8 11 7 10 9 6 9 3 9 1 12-3 15-6 12-6 7-14 9-16 6-17 3h-36l-24-3-28-6-20-6-11-4-5-6v-14l2-34 2-11 3-4 6 1 10 8 8 6 15 8 16 5 11 2h21l8-4 4-7-1-7-8-7-19-9-23-10-16-9-13-11-6-9-3-7-1-5v-12l3-13 6-11 7-7 14-8 14-4z" fill="#030E34"/>
<path transform="translate(1650,734)" d="m0 0h17l30 3 14 3 4 4-1 8-5 17-1 5v7l4-2 6-11 7-9 12-10 13-5 7-1h11l12 3 11 6 7 6 9 14 5 13 3 14 1 10v29l-3 42-3 16-4 5h-17l-29-3-15-3-5-3-1-8 7-44v-17l-4-13-5-6-6-3-9-1-6 3-5 5-5 8-3 9-2 21-2 33-3 9-3 2h-17l-36-4-9-2-5-4v-14l6-54 8-49 4-19 4-9z" fill="#030E34"/>
<path transform="translate(1206,718)" d="m0 0h50l3 3 3 12 4 44 3 51v35l-3 5-5 2-29 2h-20l-11-2-3-2v-13l1-11v-12l-4 1-9 19-8 10-10 7-14 5h-21l-13-4-10-6-8-8-7-11-4-11-3-18v-35l2-29 3-23 3-6 4-2 9-1h48l6 3 1 7-5 36v24l3 13 6 9 4 3 9 1 6-3 6-10 2-6 1-9v-16l-2-23-2-16v-7l2-5 5-2z" fill="#030E34"/>
<path transform="translate(886,691)" d="m0 0h23l4 9 4 27 3 25-1 11-1 2-6-1-22-12-13-4h-12l-5 4v11l17 85 6 28v6l-3 5-8 3-31 4-26 2h-9l-5-2-3-7v-91l-1-34-3-5-2-1h-10l-14 7-10 8-12 10-5 1-5-7-3-51v-10l2-6 12-3 52-6 62-6z" fill="#030E34"/>
<path transform="translate(1011,419)" d="m0 0h42l18 3 13 5 10 6 7 6 7 11 4 11 3 15 3 35 1 17v40l-4 4-5 1-14 1h-18l-17-1-8-3-4-4v-11l2-18h-4l-2 5-6 11-9 10-5 4-10 5-8 2h-18l-10-2-12-6-7-7-5-12-1-8v-11l3-11 7-10h2v-2l13-9 12-5 19-5 26-5 12-3v-8l-1-3-9-3h-19l-18 4-17 7-13 7-5-1-1-3v-40l2-9 4-3 17-4z" fill="#030E34"/>
<path transform="translate(1533,725)" d="m0 0h26l18 3 16 6 11 7 7 7 7 14 2 8v17l-5 12-8 9-11 7-14 5-5 1h-20l-18-4-17-9-3-1 3 9 6 8 10 6 10 4 11 2h14l16-3 16-8 9-5h4l3 10v37l-5 6-14 5-18 3-23 1-25-2-17-4-15-6-11-7-11-10-7-10-6-13-3-12-1-7v-18l3-16 6-15 8-12 9-9 13-8 13-5z" fill="#030D33"/>
<path transform="translate(1040,724)" d="m0 0h18l11 4 6 4 4 7v26l-1 27-3 8-6-1-14-8-10-3h-12l-10 3-8 6-7 11-2 9 1 17 4 27 1 14-5 5-13 2-29 2h-21l-6-3-2-6-2-33-1-43v-51l1-14 9-3 18-2h39l3 5v10l-1 13v19h4l2-10 7-21 7-10 8-7z" fill="#030E34"/>
<path transform="translate(224,645)" d="m0 0 8 4 9 7-3 7-14 14-9 11-12 13-9 11-9 10-9 11-11 13-10 13-13 16-8 11-14 19-11 16-15 23-11 19-6 10-11 24-7 20-3 14v12l4 8 8 4 5 1h12l24-4 24-6 30-10 31-13 35-17 27-14 24-14 10-6h2v14l-2 10-7 6-17 9-16 8-29 14-25 12-34 14-24 8-28 7-17 3h-28l-12-4-10-9-6-8-4-10v-20l4-19 9-24 11-22 14-24 12-19 8-12 11-16 14-19 12-16 12-14 10-13 11-13 9-11 13-14 9-11 10-10 7-8 10-12z" fill="#03030E"/>
<path transform="translate(1025,82)" d="m0 0h12l15 2 12 5 6 4 6 7 4 8 2 9v9l-2 14-6 21-8 19-13 26-17 28-7 11-12 18-8 11-25-3 7-11 10-13 17-26 9-15 10-18 8-16 8-19 5-18 1-6v-14l-4-6-6-4-4-1h-22l-25 5-27 8-32 12-29 13-29 14-25 13-23 13-18 10-51 31-9 5-3-1-5-10-3-4v-3l16-9 16-10 45-27 23-13 37-19 23-11 24-11 27-11 25-8 24-6z" fill="#03030E"/>
<path transform="translate(941,560)" d="m0 0 3 3 4 8 6 7 10 7-2 5-9 11-6 8v7l16 65 7 29-1 3-30 3h-8l-5-26-4-8-5-4-8-3-15-1-5-18-9-35-3-14v-11l6-12 20-4 16-6 9-5z" fill="#030E34"/>
<path transform="translate(876,765)" d="m0 0 6 1 29 14h6l1 1 1 44 2 46 2 13 4 8 6 4 14 4-3 12-7 9-9 6-5 1h-15l-12-3-22-8-17-8v-1l17-4 16-6 6-7 2-6v-9l-6-31-14-67z" fill="#56B2FE"/>
<path transform="translate(825,582)" d="m0 0 17 1 41 1-5 12v11l4 18 12 47v2h7v1l-41 3-21 1-3-7-12-49-3-18v-12l2-9z" fill="#56B2FE"/>
<path transform="translate(1539,768)" d="m0 0h11l9 4 3 4 1 11-3 6-7 5h-12l-10-4-6-7v-6l6-9z" fill="#F2F8FD"/>
<path transform="translate(1038,496)" d="m0 0 8 1 4 7v9l-6 8-5 4-5 2-8-1-5-4-1-3v-7l3-7 5-5 5-3z" fill="#EFF6FD"/>
<path transform="translate(1176,752)" d="m0 0 4 1 2 20v21l-3 3h-5l-1-1v-30l2-13z" fill="#56B2FE"/>
<path transform="translate(1217,449)" d="m0 0 4 1 6 32v6l-2 2-5-1-3-7-1-10v-18z" fill="#56B2FE"/>
<path transform="translate(1370,753)" d="m0 0h2l1 13v19l-1 10-2 1-5-3v-12l3-25z" fill="#56B2FE"/>
<path transform="translate(946,455)" d="m0 0h3l1 7v16l-2 2-13-15-3-5 11-3z" fill="#56B2FE"/>
</svg>
